<svg xmlns="http://www.w3.org/2000/svg" viewBox="0 0 800 600" role="img" aria-label="Set of three white candles in ceramic bowls on wooden tray with succulent">
  <rect width="800" height="600" fill="#f5f7f4" />
  <rect x="140" y="360" width="520" height="90" rx="22" fill="#a8764c" stroke="#8a613f" stroke-width="10" />
  <rect x="180" y="330" width="440" height="80" rx="22" fill="#bf8e63" opacity="0.8" />
  <g transform="translate(180 250)">
    <circle cx="90" cy="100" r="90" fill="#f7f5f2" stroke="#d7d2cb" stroke-width="8" />
    <rect x="80" y="40" width="20" height="60" rx="4" fill="#b0723c" />
  </g>
  <g transform="translate(320 230)">
    <circle cx="90" cy="120" r="100" fill="#f7f5f2" stroke="#d7d2cb" stroke-width="8" />
    <rect x="80" y="70" width="20" height="60" rx="4" fill="#b0723c" />
  </g>
  <g transform="translate(470 250)">
    <circle cx="80" cy="100" r="90" fill="#f7f5f2" stroke="#d7d2cb" stroke-width="8" />
    <rect x="70" y="40" width="20" height="60" rx="4" fill="#b0723c" />
  </g>
  <g transform="translate(540 110)">
    <ellipse cx="70" cy="90" rx="80" ry="60" fill="#9cc58e" />
    <ellipse cx="60" cy="70" rx="60" ry="45" fill="#6d9b6d" />
    <ellipse cx="110" cy="70" rx="50" ry="36" fill="#78af77" />
    <ellipse cx="70" cy="120" rx="90" ry="36" fill="#728f72" opacity="0.6" />
  </g>
</svg>