<svg xmlns="http://www.w3.org/2000/svg" viewBox="0 0 800 600" role="img" aria-label="Two modern ceramic planters with linear patterns">
  <rect width="800" height="600" fill="#f3f0eb" />
  <rect x="180" y="260" width="190" height="200" rx="18" fill="#f8f6f2" stroke="#c8b6a6" stroke-width="10" />
  <rect x="410" y="190" width="230" height="260" rx="20" fill="#f8f6f2" stroke="#c8b6a6" stroke-width="10" />
  <rect x="180" y="430" width="190" height="40" rx="10" fill="#9a6b51" />
  <rect x="410" y="430" width="230" height="40" rx="12" fill="#8b5f46" />
  <g stroke="#9a6b51" stroke-width="6" fill="none">
    <path d="M200 280c120 0 120 160 0 160" />
    <path d="M240 280c80 0 80 160 0 160" />
    <path d="M280 280c60 0 60 160 0 160" />
    <path d="M320 280c40 0 40 160 0 160" />
  </g>
  <g stroke="#8b5f46" stroke-width="6" fill="none">
    <path d="M440 210c180 80 180 220 0 220" />
    <path d="M500 220c120 60 120 200 0 200" />
    <path d="M560 220c100 80 100 200 0 200" />
  </g>
</svg>