<svg xmlns="http://www.w3.org/2000/svg" viewBox="0 0 800 600" role="img" aria-label="Colorful floral embroidery hoop held in a hand">
  <defs>
    <linearGradient id="linen" x1="0%" y1="0%" x2="0%" y2="100%">
      <stop offset="0%" stop-color="#fdf8f2" />
      <stop offset="100%" stop-color="#f5ecdf" />
    </linearGradient>
  </defs>
  <rect width="800" height="600" fill="#f7efe3" />
  <path d="M160 420c-10-70 40-130 90-150s90-10 140-30 120-10 170-60c12-12 40-6 56 8 28 26 40 92-5 136s-126 68-180 78-84 44-120 72-72 32-102-4c-17-20-36-33-49-50z" fill="#f0e1ce" stroke="#d6c4b2" stroke-width="8" />
  <circle cx="420" cy="270" r="200" fill="url(#linen)" stroke="#c99863" stroke-width="20" />
  <circle cx="420" cy="270" r="170" fill="#fffaf2" stroke="#e0d2c0" stroke-width="6" />
  <g>
    <circle cx="360" cy="260" r="60" fill="#f25a8b" />
    <path d="M360 200c-10 30-8 68 0 120" stroke="#d34372" stroke-width="8" fill="none" />
    <circle cx="300" cy="330" r="30" fill="#f8d24b" />
    <circle cx="470" cy="260" r="40" fill="#57c477" />
    <circle cx="520" cy="320" r="45" fill="#f37a4a" />
    <circle cx="420" cy="180" r="36" fill="#8cc8ff" />
    <circle cx="450" cy="215" r="16" fill="#f9e76b" />
  </g>
  <g stroke="#2e7d32" stroke-width="10" stroke-linecap="round">
    <path d="M360 260c-60 40-110 40-140 110" />
    <path d="M390 220c20-70 80-80 130-60" />
    <path d="M460 280c60 0 90 30 110 70" />
  </g>
  <g fill="#f9e76b" stroke="#d6b52f" stroke-width="6">
    <circle cx="280" cy="200" r="22" />
    <circle cx="520" cy="210" r="18" />
    <circle cx="490" cy="350" r="18" />
  </g>
  <g stroke="#c65bb7" stroke-width="8" stroke-linecap="round">
    <path d="M320 330c-20 40-10 70-10 70" />
    <path d="M520 330c20 30 40 60 20 100" />
  </g>
  <path d="M300 400c30-20 60-20 100-10 40-10 70-10 110 10" fill="none" stroke="#f5b6e0" stroke-width="14" stroke-linecap="round" />
  <g fill="#f6d7a8" stroke="#c99863" stroke-width="8">
    <rect x="380" y="70" width="80" height="24" rx="12" />
    <rect x="400" y="40" width="40" height="20" rx="10" />
  </g>
</svg>